<svg width="32" height="32" viewBox="0 0 32 32" fill="none" xmlns="http://www.w3.org/2000/svg">
<path d="M3.53067 8.65583C3.25867 8.75717 3.008 8.9865 2.87467 9.26383L2.74667 9.51983L2.73067 15.8665C2.72 20.2398 2.736 22.2985 2.77334 22.4905C3.008 23.6052 4.49067 23.8185 5.02934 22.8105L5.14667 22.5865V16.0265V9.4665L5.02934 9.2425C4.74134 8.70917 4.09067 8.45317 3.53067 8.65583Z" fill="#E83505"/>
<path d="M11.984 8.66655C9.97334 9.04522 8.32534 10.5866 7.776 12.5866L7.65334 13.0399V17.8772V22.7092L7.81334 22.9439C8.01067 23.2266 8.45334 23.4666 8.768 23.4666C9.25334 23.4666 9.65867 23.2266 9.88267 22.8106L10 22.5866L10.0267 17.9199C10.0533 13.7652 10.064 13.2319 10.1387 13.0346C10.3467 12.5226 10.544 12.2186 10.9013 11.8612C11.7973 10.9652 13.0293 10.7412 14.1813 11.2586C14.9333 11.5999 15.488 12.2239 15.76 13.0292C15.9413 13.5732 15.9467 14.3146 15.7707 14.8319C15.4507 15.7759 14.7307 16.4746 13.7653 16.7839C13.616 16.8266 13.1573 16.8746 12.6133 16.9012C11.6373 16.9386 11.52 16.9706 11.2427 17.2639C10.9013 17.6212 10.832 18.2239 11.072 18.6719C11.2373 18.9759 11.4987 19.1679 11.856 19.2586C12.192 19.3386 13.5413 19.2906 14.0533 19.1786C16.0533 18.7412 17.6107 17.2692 18.144 15.3066C18.2507 14.9066 18.2667 14.7359 18.2613 13.8932C18.2613 13.0079 18.2507 12.8959 18.1173 12.4639C17.5413 10.5972 16.128 9.23722 14.2507 8.74122C13.7013 8.59189 12.56 8.55989 11.984 8.66655Z" fill="#E83505"/>
<path d="M22.9493 8.67725C22.6293 8.78925 22.224 9.17325 22.096 9.47725C22.032 9.61592 21.0347 12.5013 19.8667 15.8826C17.7973 21.8879 17.7493 22.0426 17.7707 22.3786C17.7973 22.8266 17.9893 23.1146 18.4 23.3226C18.656 23.4559 18.736 23.4719 19.0347 23.4506C19.4133 23.4239 19.7227 23.2479 19.92 22.9493C19.984 22.8586 20.6187 21.0879 21.3333 19.0079C23.344 13.1573 23.4347 12.9013 23.488 12.8906C23.5093 12.8853 23.8987 13.9466 24.3467 15.2533L25.1627 17.6266L23.952 17.6533C23.216 17.6746 22.6933 17.7066 22.6027 17.7439C22.5227 17.7813 22.3627 17.8933 22.2453 17.9999C21.6747 18.5173 21.7547 19.4453 22.4107 19.8773L22.6293 20.0266L24.288 20.0426C25.2 20.0533 25.9627 20.0746 25.984 20.0959C26.0053 20.1173 26.24 20.7573 26.5013 21.5146C27.0347 23.0399 27.1307 23.2106 27.6107 23.3919C28.3573 23.6799 29.2267 23.0933 29.2267 22.2933C29.2267 22.1013 28.7253 20.5813 27.0613 15.7546C25.76 11.9839 24.8373 9.38125 24.752 9.25325C24.592 9.00792 24.192 8.71992 23.904 8.63992C23.632 8.56525 23.216 8.58125 22.9493 8.67725Z" fill="#E83505"/>
</svg>
