<?xml version="1.0" encoding="UTF-8"?>
<svg version="1.1" xmlns="http://www.w3.org/2000/svg" width="512" height="512">
<path d="M0 0 C0.90186035 0.17692383 1.8037207 0.35384766 2.73291016 0.53613281 C9.20599895 1.83501287 15.60888488 3.34657126 22 5 C22.82000488 5.20963379 23.64000977 5.41926758 24.48486328 5.63525391 C58.17024255 14.44485883 88.96649009 31.29229379 116 53 C117.50046875 54.19109375 117.50046875 54.19109375 119.03125 55.40625 C132.89778302 66.7515952 146.2899831 79.6029281 157 94 C157.45971191 94.59973633 157.91942383 95.19947266 158.39306641 95.81738281 C183.7457788 128.9479423 200.63105558 166.93602242 208 208 C208.16226074 208.83128418 208.32452148 209.66256836 208.49169922 210.51904297 C213.76694663 238.13651472 213.55756833 270.45402542 208 298 C207.82307617 298.90186035 207.64615234 299.8037207 207.46386719 300.73291016 C206.16498713 307.20599895 204.65342874 313.60888488 203 320 C202.79036621 320.82000488 202.58073242 321.64000977 202.36474609 322.48486328 C193.55514117 356.17024255 176.70770621 386.96649009 155 414 C154.2059375 415.0003125 153.411875 416.000625 152.59375 417.03125 C141.2484048 430.89778302 128.3970719 444.2899831 114 455 C113.10039551 455.68956787 113.10039551 455.68956787 112.18261719 456.39306641 C79.0520577 481.7457788 41.06397758 498.63105558 0 506 C-0.83128418 506.16226074 -1.66256836 506.32452148 -2.51904297 506.49169922 C-30.13651472 511.76694663 -62.45402542 511.55756833 -90 506 C-90.90186035 505.82307617 -91.8037207 505.64615234 -92.73291016 505.46386719 C-99.20599895 504.16498713 -105.60888488 502.65342874 -112 501 C-112.82000488 500.79036621 -113.64000977 500.58073242 -114.48486328 500.36474609 C-148.17024255 491.55514117 -178.96649009 474.70770621 -206 453 C-207.0003125 452.2059375 -208.000625 451.411875 -209.03125 450.59375 C-222.89778302 439.2484048 -236.2899831 426.3970719 -247 412 C-247.68956787 411.10039551 -247.68956787 411.10039551 -248.39306641 410.18261719 C-273.7457788 377.0520577 -290.63105558 339.06397758 -298 298 C-298.16226074 297.16871582 -298.32452148 296.33743164 -298.49169922 295.48095703 C-303.76694663 267.86348528 -303.55756833 235.54597458 -298 208 C-297.82307617 207.09813965 -297.64615234 206.1962793 -297.46386719 205.26708984 C-296.16498713 198.79400105 -294.65342874 192.39111512 -293 186 C-292.79036621 185.17999512 -292.58073242 184.35999023 -292.36474609 183.51513672 C-283.55514117 149.82975745 -266.70770621 119.03350991 -245 92 C-244.2059375 90.9996875 -243.411875 89.999375 -242.59375 88.96875 C-231.2484048 75.10221698 -218.3970719 61.7100169 -204 51 C-203.40026367 50.54028809 -202.80052734 50.08057617 -202.18261719 49.60693359 C-169.0520577 24.2542212 -131.06397758 7.36894442 -90 0 C-89.16871582 -0.16226074 -88.33743164 -0.32452148 -87.48095703 -0.49169922 C-59.86348528 -5.76694663 -27.54597458 -5.55756833 0 0 Z " fill="#DBE4EA" transform="translate(301,3)"/>
<path d="M0 0 C3.0864782 1.23459128 5.73925482 2.31214541 8.58203125 3.890625 C9.25387451 4.26292236 9.92571777 4.63521973 10.61791992 5.01879883 C11.34213135 5.42509521 12.06634277 5.8313916 12.8125 6.25 C13.97906128 6.90101685 13.97906128 6.90101685 15.16918945 7.56518555 C22.74953105 11.81786178 30.24777902 16.20948939 37.74560547 20.60546875 C44.77318665 24.71982643 51.8395787 28.75834464 58.9375 32.75 C66.22597058 36.84972641 73.47118713 41.00893679 80.66552734 45.27148438 C86.10023682 48.48612858 91.57493163 51.6265663 97.0625 54.75 C104.73665809 59.11896539 112.37779729 63.5410267 120 68 C127.47740756 72.37381463 134.9716961 76.71437145 142.5 81 C149.92231886 85.22615882 157.3139743 89.50177728 164.6875 93.8125 C176.33810553 100.62357982 188.02371974 107.37273669 199.71777344 114.10888672 C205.14659942 117.23680148 210.57319281 120.36858448 216 123.5 C218.16665583 124.75001879 220.3333225 126.00001878 222.5 127.25 C268 153.5 268 153.5 313.5 179.75 C314.57266113 180.36883057 315.64532227 180.98766113 316.75048828 181.62524414 C318.91557071 182.87435518 321.08060982 184.12354129 323.24560547 185.37280273 C328.68615706 188.51202309 334.12747216 191.64990563 339.5703125 194.78515625 C343.89271423 197.2750471 348.21284467 199.76880995 352.53125 202.265625 C356.42399238 204.51619095 360.32159707 206.75775313 364.22610474 208.98780823 C367.02885195 210.59061564 369.82634864 212.2025546 372.625 213.8125 C374.19145264 214.70207397 374.19145264 214.70207397 375.78955078 215.60961914 C376.73813965 216.15739014 377.68672852 216.70516113 378.6640625 217.26953125 C379.50404785 217.75010986 380.3440332 218.23068848 381.20947266 218.72583008 C382.09578369 219.35654419 382.09578369 219.35654419 383 220 C383 220.66 383 221.32 383 222 C246.5 300.75 246.5 300.75 243.24951172 302.62524414 C241.08442929 303.87435518 238.91939018 305.12354129 236.75439453 306.37280273 C231.31384294 309.51202309 225.87252784 312.64990563 220.4296875 315.78515625 C209.97793721 321.80747375 199.53706885 327.84680257 189.125 333.9375 C180.48718006 338.98838014 171.81680804 343.98025128 163.125 348.9375 C146.08717969 358.65505447 129.06323362 368.39680117 112.17675781 378.37573242 C105.95801591 382.04255731 99.68969666 385.62045992 93.41748047 389.19482422 C83.04224601 395.10939842 72.70290995 401.08592701 62.36132812 407.05908203 C57.86857574 409.65331369 53.37433112 412.2449544 48.88012695 414.83666992 C40.12529863 419.88572354 31.3723211 424.93795023 22.625 430 C21.86203613 430.44093994 21.09907227 430.88187988 20.31298828 431.33618164 C16.94487905 433.28470845 13.58292062 435.24188482 10.23828125 437.23046875 C9.14902344 437.87628906 8.05976563 438.52210938 6.9375 439.1875 C6.01839844 439.73792969 5.09929687 440.28835938 4.15234375 440.85546875 C2 442 2 442 0 442 C0 296.14 0 150.28 0 0 Z " fill="#000000" transform="translate(128,35)"/>
<path d="M0 0 C0.99 0.495 0.99 0.495 2 1 C1.67 1.33 1.34 1.66 1 2 C0.89618405 4.35142095 0.85792995 6.6737404 0.8613348 9.02592564 C0.85707147 10.14704816 0.85707147 10.14704816 0.85272202 11.29081962 C0.84431566 13.82731848 0.8431022 16.36377204 0.84178162 18.90028381 C0.8372203 20.72430975 0.83222092 22.54833463 0.82681805 24.37235826 C0.81317849 29.40959224 0.80580185 34.44681943 0.79939139 39.48406708 C0.79141287 44.90673951 0.7777064 50.32939771 0.76467896 55.75205994 C0.7428799 65.1554781 0.72474801 74.55889767 0.70907402 83.96232796 C0.68640653 97.55827936 0.65825944 111.15421503 0.62875474 124.75015312 C0.58104047 146.8061661 0.53778672 168.86218551 0.49731445 190.91821289 C0.45798625 212.34953309 0.416569 233.78084758 0.37231445 255.2121582 C0.36822804 257.19214219 0.36822804 257.19214219 0.36405908 259.21212585 C0.35037993 265.83381478 0.33665959 272.45550362 0.32291877 279.07719243 C0.20889377 334.05144971 0.10209778 389.02571936 0 444 C0.66 444.33 1.32 444.66 2 445 C-2.04507565 445 -4.58969569 443.11443414 -7.9375 441.0625 C-8.60555664 440.65644531 -9.27361328 440.25039063 -9.96191406 439.83203125 C-33.84879562 425.08338975 -57.07958058 404.47243205 -74 382 C-74.4640625 381.39591309 -74.928125 380.79182617 -75.40625 380.16943359 C-100.75105715 347.04176635 -117.63236877 309.05665974 -125 268 C-125.16226074 267.16871582 -125.32452148 266.33743164 -125.49169922 265.48095703 C-130.76694663 237.86348528 -130.55756833 205.54597458 -125 178 C-124.82307617 177.09813965 -124.64615234 176.1962793 -124.46386719 175.26708984 C-123.16498713 168.79400105 -121.65342874 162.39111512 -120 156 C-119.79036621 155.17999512 -119.58073242 154.35999023 -119.36474609 153.51513672 C-110.55514117 119.82975745 -93.70770621 89.03350991 -72 62 C-71.2059375 60.9996875 -70.411875 59.999375 -69.59375 58.96875 C-58.25620422 45.1117496 -45.40963765 31.67736835 -31 21 C-30.34177246 20.50838379 -29.68354492 20.01676758 -29.00537109 19.51025391 C-8.40675766 4.17608416 -8.40675766 4.17608416 0 0 Z " fill="#D1DBE1" transform="translate(128,33)"/>
<path d="M0 0 C19.4956657 18.06479115 30.28539645 42.41713213 34.5546875 68.3671875 C34.72532715 69.3866748 34.8959668 70.40616211 35.07177734 71.45654297 C38.65607669 94.3838651 38.6010011 117.51224249 27.5546875 138.3671875 C27.06355469 139.31851563 26.57242188 140.26984375 26.06640625 141.25 C14.64072359 162.1380022 -3.68059521 177.37541704 -26.53515625 184.265625 C-56.16777585 192.74463995 -87.6851703 189.43974623 -115.4453125 176.3671875 C-116.48558594 175.96886719 -117.52585938 175.57054687 -118.59765625 175.16015625 C-124.87444916 172.61161623 -124.87444916 172.61161623 -126.38574219 169.31713867 C-126.58586914 168.52283447 -126.78599609 167.72853027 -126.9921875 166.91015625 C-127.2298584 166.01756104 -127.4675293 165.12496582 -127.71240234 164.20532227 C-127.9542627 163.26873779 -128.19612305 162.33215332 -128.4453125 161.3671875 C-128.98779317 159.52396748 -129.53739266 157.68282907 -130.09375 155.84375 C-133.16957597 145.4502496 -136.10243822 135.05163213 -138.67358398 124.52148438 C-140.54476156 116.87426296 -142.65337016 109.30367345 -144.78613281 101.72607422 C-145.96481384 97.50814232 -147.109407 93.28094221 -148.2578125 89.0546875 C-153.64386872 69.27718722 -159.07570015 49.51478898 -164.74365234 29.81591797 C-165.357114 27.68234614 -165.96822533 25.54809672 -166.57666016 23.41308594 C-167.15851055 21.3728483 -167.74679227 19.33443445 -168.34130859 17.29785156 C-168.61668457 16.33331055 -168.89206055 15.36876953 -169.17578125 14.375 C-169.42094482 13.52824707 -169.6661084 12.68149414 -169.91870117 11.80908203 C-170.4689024 9.25780123 -170.53970856 6.96903345 -170.4453125 4.3671875 C-144.80330466 -3.40355641 -118.97107531 -10.63455164 -92.9453125 -17.0078125 C-91.43287964 -17.38413818 -91.43287964 -17.38413818 -89.88989258 -17.76806641 C-59.12942074 -25.16625246 -24.54258568 -21.12796506 0 0 Z " fill="#EC7B7A" transform="translate(316.4453125,195.6328125)"/>
<path d="M0 0 C0.76054687 0.474375 1.52109375 0.94875 2.3046875 1.4375 C17.65081445 12.18495591 23.54175763 30.66140105 28 48 C28.24878906 48.95519531 28.49757813 49.91039062 28.75390625 50.89453125 C32.18554628 66.51689249 30.84025487 82.0785218 23 96 C22.34 96.99 21.68 97.98 21 99 C20.34 99 19.68 99 19 99 C18.505 100.485 18.505 100.485 18 102 C7.52788431 111.61107507 -6.51457279 115.06777354 -20 118 C-20.1858667 117.30140869 -20.3717334 116.60281738 -20.56323242 115.88305664 C-21.43574022 112.60893415 -22.31161856 109.33572154 -23.1875 106.0625 C-23.47947266 104.96486328 -23.77144531 103.86722656 -24.07226562 102.73632812 C-25.77620116 96.37863317 -27.56238815 90.05366 -29.44140625 83.74609375 C-31.84449928 75.65937421 -34.01970949 67.52283494 -36.13824463 59.35754395 C-37.20346923 55.25244911 -38.27684057 51.14949232 -39.3515625 47.046875 C-39.56936371 46.21532898 -39.78716492 45.38378296 -40.01156616 44.52703857 C-42.69243625 34.32194144 -45.49052098 24.1486928 -48.30761719 13.98046875 C-48.6660219 12.67968923 -49.02442069 11.37890808 -49.3828125 10.078125 C-49.69621582 8.94793945 -50.00961914 7.81775391 -50.33251953 6.65332031 C-51 4 -51 4 -51 2 C-48.41710408 1.18608745 -45.83371003 0.37382071 -43.25 -0.4375 C-42.52039063 -0.66759766 -41.79078125 -0.89769531 -41.0390625 -1.13476562 C-40.33007812 -1.35712891 -39.62109375 -1.57949219 -38.890625 -1.80859375 C-38.24125977 -2.01282959 -37.59189453 -2.21706543 -36.92285156 -2.42749023 C-25.80042484 -5.73908123 -10.0198122 -6.4004884 0 0 Z " fill="#010000" transform="translate(265,228)"/>
<path d="M0 0 C0.66 0.33 1.32 0.66 2 1 C2 1.66 2 2.32 2 3 C-4.93 6.96 -11.86 10.92 -19 15 C-19.66 14.01 -20.32 13.02 -21 12 C-20.47792969 11.79246094 -19.95585937 11.58492188 -19.41796875 11.37109375 C-12.78454987 8.59458392 -5.14174356 5.14174356 0 0 Z " fill="#24191B" transform="translate(317,365)"/>
</svg>
